Coordinates
version=1
nRows=24
nColumns=24
inDegrees=yes

Units are S.I. units (second, meters, Newtons, ...)
Angles are in degrees.

endheader
time	pelvis_tilt	pelvis_list	pelvis_rotation	pelvis_tx	pelvis_ty	pelvis_tz	hip_flexion_r	hip_adduction_r	hip_rotation_r	knee_angle_r	ankle_angle_r	subtalar_angle_r	mtp_angle_r	hip_flexion_l	hip_adduction_l	hip_rotation_l	knee_angle_l	ankle_angle_l	subtalar_angle_l	mtp_angle_l	lumbar_extension	lumbar_bending	lumbar_rotation
      0.70916667	      1.11505141	     -5.15472807	     -5.57460120	     -0.52518359	      1.01794468	      0.33477752	      8.90415920	      7.82209032	     -2.02766281	    -12.59084363	     -2.88977132	    -11.75318705	     -0.75739180	     14.04767900	    -10.01779003	     -8.74921618	    -67.67211812	      3.35462811	    -15.56606961	     -5.29307683	    -13.34256560	      6.60005187	      6.38482214
      0.71333333	      1.12987363	     -5.02667461	     -5.63162264	     -0.51973027	      1.01887469	      0.33519689	      8.42323490	      7.69772498	     -1.90881101	    -12.34758786	     -2.75057600	    -11.75404037	     -0.75370648	     14.60593266	     -9.89335990	     -8.72511115	    -67.36722921	      3.65006090	    -15.59829306	     -5.31941901	    -13.34586207	      6.41854977	      6.45860047
      0.71750000	      1.22038238	     -4.84936803	     -5.75635163	     -0.51434663	      1.01992951	      0.33574349	      7.88407986	      7.52187336	     -1.71632791	    -12.14120590	     -2.59132023	    -11.69020770	     -0.73961664	     15.02902365	     -9.72593695	     -8.80259350	    -66.92830628	      3.92067971	    -15.62823628	     -5.48833467	    -13.46738929	      6.12527504	      6.70019870
      0.72166667	      1.21052123	     -4.70850700	     -5.79831740	     -0.50893511	      1.02075416	      0.33612850	      7.44161672	      7.38209952	     -1.60157740	    -11.90363385	     -2.50302141	    -11.74478905	     -0.73750153	     15.58763259	     -9.58390905	     -8.78425983	    -66.46313960	      4.17975662	    -15.67226523	     -5.53379644	    -13.45294649	      5.92201710	      6.75047292
      0.72583333	      1.26432481	     -4.53326263	     -5.92196820	     -0.50349689	      1.02169209	      0.33666852	      6.93595180	      7.20954030	     -1.39484272	    -11.68240070	     -2.36905432	    -11.74277538	     -0.73091187	     16.00869171	     -9.42761667	     -8.89455629	    -65.86372295	      4.36867231	    -15.78332978	     -5.69866276	    -13.50889213	      5.65704718	      6.91198716
      0.73000000	      1.25074617	     -4.39886546	     -5.95740725	     -0.49807204	      1.02243225	      0.33703342	      6.49829047	      7.07306445	     -1.28596097	    -11.44183206	     -2.29420776	    -11.80208151	     -0.73069674	     16.53058425	     -9.29656379	     -8.90360934	    -65.24718509	      4.60275566	    -15.84792690	     -5.74984551	    -13.48569094	      5.45119731	      6.96715728
      0.73416667	      1.31754852	     -4.22500708	     -6.08766433	     -0.49259689	      1.02333393	      0.33757800	      5.97464328	      6.89723882	     -1.06927958	    -11.21009436	     -2.17295022	    -11.82037424	     -0.73086948	     16.88402633	     -9.14856516	     -9.05990233	    -64.47927788	      4.71339229	    -16.01175821	     -5.91876811	    -13.54692795	      5.18600553	      7.12789010
      0.73833333	      1.37342691	     -4.07039732	     -6.18334099	     -0.48714596	      1.02415263	      0.33807048	      5.46178962	      6.73935511	     -0.87752750	    -10.96871484	     -2.08595060	    -11.87382480	     -0.73702918	     17.24695090	     -9.01572998	     -9.18549306	    -63.66710729	      4.86689771	    -16.15279278	     -6.12988351	    -13.60464438	      4.92350674	      7.27234899
      0.74250000	      1.38329827	     -3.92279355	     -6.25046836	     -0.48166293	      1.02484972	      0.33848577	      4.99842037	      6.58642706	     -0.72020563	    -10.72851464	     -2.00311069	    -11.94316642	     -0.74500316	     17.64937501	     -8.88365075	     -9.28358386	    -62.79108478	      4.95697279	    -16.28692837	     -6.27626437	    -13.59729379	      4.69994091	      7.35303525
      0.74666667	      1.45785642	     -3.77072874	     -6.34095424	     -0.47617696	      1.02562571	      0.33892157	      4.46559985	      6.42077834	     -0.53731623	    -10.48732512	     -1.91532729	    -11.99764245	     -0.75855619	     17.93878632	     -8.74662019	     -9.43228931	    -61.82321725	      5.04625046	    -16.46194438	     -6.45504283	    -13.66599867	      4.45778390	      7.47481425
      0.75083333	      1.42225530	     -3.64902562	     -6.35689809	     -0.47068248	      1.02612210	      0.33918251	      4.05624662	      6.28849394	     -0.44811850	    -10.25461189	     -1.85807368	    -12.08760369	     -0.76579912	     18.36807989	     -8.62479922	     -9.48599795	    -60.85062922	      5.21837738	    -16.56160968	     -6.51594400	    -13.60495726	      4.28864974	      7.52570298
      0.75500000	      1.43353984	     -3.49559247	     -6.42437647	     -0.46515469	      1.02671307	      0.33954167	      3.59766338	      6.12199890	     -0.29436667	    -10.02516901	     -1.78565229	    -12.17880294	     -0.77740900	     18.68680702	     -8.48060667	     -9.62498587	    -59.75428684	      5.25387206	    -16.76169881	     -6.60780635	    -13.58880884	      4.06367935	      7.59524379
      0.75916667	      1.63550821	     -3.35706861	     -6.56359912	     -0.45964863	      1.02759092	      0.34010411	      2.91526509	      5.95981647	     -0.03099947	     -9.76347101	     -1.65439015	    -12.20870213	     -0.80563852	     18.72859939	     -8.37862697	     -9.89851290	    -58.54550269	      5.21180805	    -17.00212038	     -6.81504441	    -13.81540494	      3.79138026	      7.78148938
      0.76333333	      1.72471674	     -3.23122680	     -6.64961609	     -0.45409241	      1.02821792	      0.34051764	      2.36056337	      5.81445030	      0.15419796	     -9.51552871	     -1.58151728	    -12.32308353	     -0.85236456	     18.89459128	     -8.27449782	    -10.09972286	    -57.31921636	      5.32263837	    -17.14489976	     -7.09392389	    -13.89527052	      3.57030798	      7.93789215
      0.76750000	      1.68187219	     -3.12877640	     -6.65001058	     -0.44855173	      1.02852442	      0.34071352	      1.96150639	      5.69846995	      0.23557459	     -9.29398869	     -1.52081553	    -12.44601090	     -0.87091855	     19.23177237	     -8.16926007	    -10.18251739	    -56.08672257	      5.37980711	    -17.24262590	     -7.18559663	    -13.81470071	      3.42762494	      7.97159122
      0.77166667	      1.84168155	     -3.00498032	     -6.76702232	     -0.44300980	      1.02919340	      0.34117598	      1.33043691	      5.54520389	      0.47766129	     -9.04686918	     -1.39074996	    -12.50154407	     -0.92087198	     19.25264149	     -8.07151806	    -10.45789354	    -54.70590638	      5.32575596	    -17.49765080	     -7.43284287	    -13.99138169	      3.19509599	      8.09871513
      0.77583333	      1.92292104	     -2.90154487	     -6.82509008	     -0.43743447	      1.02965034	      0.34150363	      0.78572457	      5.41702073	      0.63640572	     -8.80385216	     -1.31416106	    -12.63106702	     -0.97532564	     19.36174381	     -7.98112186	    -10.66605357	    -53.30760053	      5.34290008	    -17.64707106	     -7.67198259	    -14.06106047	      3.00963872	      8.19602415
      0.78000000	      2.00267381	     -2.80675556	     -6.88462033	     -0.43186599	      1.03005024	      0.34181493	      0.24931521	      5.29474918	      0.79598404	     -8.57750912	     -1.21386834	    -12.73882811	     -1.03644017	     19.44828023	     -7.89892310	    -10.88555565	    -51.85692651	      5.36425649	    -17.78692878	     -7.92019763	    -14.13182950	      2.83588273	      8.28981094
      0.78416667	      2.09215859	     -2.72463091	     -6.93470461	     -0.42629889	      1.03040752	      0.34210155	     -0.29873545	      5.18392724	      0.95062676	     -8.35040600	     -1.11628286	    -12.86148863	     -1.10284128	     19.50199651	     -7.82591722	    -11.11179752	    -50.35595703	      5.38144854	    -17.92017961	     -8.17225826	    -14.21548839	      2.67706794	      8.37303050
      0.78833333	      2.13850723	     -2.65640355	     -6.98469548	     -0.42073137	      1.03063930	      0.34237719	     -0.79446424	      5.09211327	      1.10736877	     -8.13929611	     -1.00301017	    -12.98198809	     -1.17637183	     19.58463955	     -7.77274483	    -11.34742063	    -48.81896880	      5.40352889	    -18.04000021	     -8.43265592	    -14.26217340	      2.54275890	      8.45807137
      0.79250000	      2.26476963	     -2.59463130	     -7.03021216	     -0.41515396	      1.03095314	      0.34264654	     -1.38029356	      4.99500180	      1.25664565	     -7.92387581	     -0.87011600	    -13.11343116	     -1.31371400	     19.54422969	     -7.71879380	    -11.60917803	    -47.21540447	      5.47895654	    -18.05468201	     -8.88186439	    -14.39459807	      2.39847000	      8.62360878
      0.79666667	      2.24479292	     -2.55427534	     -7.06307533	     -0.40960995	      1.03095028	      0.34284553	     -1.79097740	      4.93710605	      1.40074947	     -7.74377100	     -0.75506872	    -13.23056188	     -1.39008765	     19.66900385	     -7.69017211	    -11.84381485	    -45.60278728	      5.45517271	    -18.22026610	     -9.11888926	    -14.36209010	      2.31667886	      8.60103072
      0.80083333	      2.33940132	     -2.51121198	     -7.10248574	     -0.40402594	      1.03111030	      0.34307842	     -2.33079893	      4.85971860	      1.53131125	     -7.55773641	     -0.60343176	    -13.34900016	     -1.53234965	     19.61898140	     -7.65438896	    -12.13400822	    -43.90755643	      5.49611670	    -18.21459346	     -9.52765277	    -14.46206322	      2.19926997	      8.75143050
      0.80500000	      2.27512443	     -2.49097678	     -7.13160419	     -0.39847764	      1.03093582	      0.34322454	     -2.68013377	      4.82296795	      1.66688097	     -7.41138783	     -0.47238489	    -13.44751918	     -1.61952450	     19.74791535	     -7.64415550	    -12.39142123	    -42.21121425	      5.49380287	    -18.32669141	     -9.76507242	    -14.38366513	      2.15292240	      8.72774700
